<svg width="107" height="108" viewBox="0 0 107 108" fill="none" xmlns="http://www.w3.org/2000/svg">
<path d="M88.364 20.7299V15.7045C88.364 7.04504 81.3189 0 72.6595 0L34.1311 0C25.4716 0 18.4266 7.04504 18.4266 15.7045V20.7299L88.364 20.7299Z" fill="white" fill-opacity="0.4"/>
<path d="M24.7085 66.7964L24.7085 92.3424V97.7866V100.928C24.7085 104.397 27.5208 107.209 30.9903 107.209H75.8004C79.2699 107.209 82.0822 104.397 82.0822 100.928V97.7866V92.3424V66.7964H24.7085ZM61.7711 93.5987H45.0196C43.285 93.5987 41.8787 92.1924 41.8787 90.4578C41.8787 88.7232 43.285 87.3169 45.0196 87.3169H61.7711C63.5057 87.3169 64.912 88.7232 64.912 90.4578C64.912 92.1924 63.5057 93.5987 61.7711 93.5987ZM61.7711 80.1976H45.0196C43.285 80.1976 41.8787 78.7913 41.8787 77.0567C41.8787 75.322 43.285 73.9158 45.0196 73.9158H61.7711C63.5057 73.9158 64.912 75.322 64.912 77.0567C64.912 78.7913 63.5057 80.1976 61.7711 80.1976Z" fill="white" fill-opacity="0.4"/>
<path d="M91.2956 27.0118L15.7046 27.0118C7.0451 27.0118 6.10352e-05 34.0569 6.10352e-05 42.7163L6.10352e-05 67.8435C6.10352e-05 76.503 7.0451 83.548 15.7046 83.548H18.4267L18.4267 66.7966H16.5421C14.8075 66.7966 13.4012 65.3903 13.4012 63.6557C13.4012 61.9211 14.8075 60.5148 16.5421 60.5148H21.5676L85.2232 60.5148H90.2486C91.9832 60.5148 93.3895 61.9211 93.3895 63.6557C93.3895 65.3903 91.9832 66.7966 90.2486 66.7966H88.3641L88.3641 83.548H91.2956C99.955 83.548 107 76.503 107 67.8435V42.7163C107 34.0569 99.955 27.0118 91.2956 27.0118ZM26.593 46.6948H16.5421C14.8075 46.6948 13.4012 45.2885 13.4012 43.5539C13.4012 41.8193 14.8075 40.413 16.5421 40.413H26.593C28.3276 40.413 29.7339 41.8193 29.7339 43.5539C29.7339 45.2885 28.3276 46.6948 26.593 46.6948Z" fill="white" fill-opacity="0.4"/>
</svg>
